<svg version="1.2" baseProfile="tiny-ps" xmlns="http://www.w3.org/2000/svg" viewBox="0 0 256 78" width="256" height="78">
	<title>cmr-debito-svg</title>
	<style>
		tspan { white-space:pre }
		.shp0 { fill: #424548 } 
		.shp1 { fill: #ffffff } 
		.shp2 { fill: #006726 } 
		.shp3 { fill: #c3cc00 } 
		.shp4 { fill: #47a01a } 
		.shp5 { fill: #e1001e } 
	</style>
	<g id="Layer">
		<g id="Layer">
			<path id="Layer" class="shp0" d="M251.2 77.5L174.5 77.5C172.3 77.5 170.6 75.7 170.6 73.6L170.6 28.2C170.6 26 172.4 24.3 174.5 24.3L251.2 24.3C253.4 24.3 255.1 26.1 255.1 28.2L255.1 73.6C255.1 75.7 253.4 77.5 251.2 77.5Z" />
			<g id="Layer">
				<path id="Layer" fill-rule="evenodd" class="shp1" d="M184.1 53.5C183.6 53.5 183.3 53.4 183.2 53.2C183 53 183 52.7 183 52.3L183 41.5C183 41.1 183.1 40.8 183.2 40.6C183.4 40.4 183.7 40.3 184.1 40.3L187.8 40.3C188.9 40.3 189.9 40.5 190.7 40.8C191.5 41.2 192.1 41.6 192.6 42.2C193.1 42.8 193.5 43.5 193.7 44.3C193.9 45.1 194 45.9 194 46.8C194 47.7 193.9 48.5 193.7 49.3C193.5 50.1 193.2 50.8 192.7 51.4C192.2 52 191.6 52.5 190.8 52.9C190 53.3 189.1 53.5 187.9 53.5L184.1 53.5ZM190.9 46.8C190.9 46.2 190.8 45.7 190.7 45.2C190.6 44.7 190.4 44.3 190.1 43.9C189.8 43.5 189.5 43.3 189 43.1C188.5 42.9 188 42.8 187.3 42.8L185.8 42.8L185.8 51L187.4 51C188.1 51 188.6 50.9 189.1 50.7C189.5 50.5 189.9 50.2 190.2 49.8C190.5 49.4 190.6 49 190.7 48.5C190.9 48 190.9 47.4 190.9 46.8Z" />
				<path id="Layer" class="shp1" d="M205.4 53.1C205.4 53.3 205.4 53.4 205.3 53.4C205.2 53.5 205.1 53.5 205 53.5L199.2 53.5C198.5 53.5 197.9 53.4 197.4 53.2C196.9 53 196.6 52.7 196.3 52.4C196 52.1 195.8 51.7 195.7 51.3C195.6 50.9 195.5 50.5 195.5 50L195.5 43.7C195.5 43.2 195.6 42.8 195.7 42.4C195.8 42 196 41.6 196.3 41.3C196.6 41 196.9 40.7 197.4 40.5C197.9 40.3 198.4 40.2 199.1 40.2L204.7 40.2C204.9 40.2 205 40.2 205 40.3C205 40.4 205.1 40.5 205.1 40.7L205.1 42.3C205.1 42.5 205.1 42.6 205 42.6C204.9 42.7 204.9 42.7 204.7 42.7L199.7 42.7C199.2 42.7 198.9 42.8 198.7 43C198.5 43.2 198.4 43.5 198.4 43.8L198.4 45.3L204 45.3C204.2 45.3 204.3 45.3 204.3 45.4C204.3 45.5 204.4 45.6 204.4 45.8L204.4 47.3C204.4 47.5 204.4 47.6 204.3 47.6C204.3 47.7 204.2 47.7 204 47.7L198.4 47.7L198.4 49.8C198.4 50.2 198.5 50.5 198.7 50.7C198.9 50.9 199.2 50.9 199.6 50.9L204.8 50.9C205 50.9 205.1 50.9 205.1 51C205.1 51.1 205.2 51.2 205.2 51.4L205.2 53.1L205.4 53.1ZM202.3 35.9C202.4 35.8 202.4 35.8 202.5 35.8C202.6 35.8 202.6 35.8 202.8 35.9L204.1 37.4C204.2 37.5 204.2 37.5 204.2 37.6C204.2 37.7 204.1 37.7 204.1 37.7L200.3 39.6C200.2 39.7 200.1 39.7 200 39.7C199.9 39.7 199.9 39.6 199.8 39.6L199.1 38.7C199 38.6 199 38.6 199 38.5C199 38.4 199 38.4 199.1 38.3L202.3 35.9Z" />
				<path id="Layer" fill-rule="evenodd" class="shp1" d="M215.2 46.3C215.6 46.4 215.9 46.6 216.1 46.9C216.4 47.1 216.6 47.4 216.8 47.7C217 48 217.1 48.3 217.2 48.6C217.3 48.9 217.3 49.2 217.3 49.6C217.3 50.2 217.2 50.7 216.9 51.2C216.7 51.7 216.3 52.1 215.9 52.5C215.5 52.9 215 53.1 214.4 53.3C213.8 53.5 213.2 53.6 212.6 53.6L207.7 53.6C207.2 53.6 206.9 53.5 206.8 53.3C206.6 53.1 206.6 52.8 206.6 52.4L206.6 41.5C206.6 41.1 206.7 40.8 206.8 40.6C207 40.4 207.3 40.3 207.7 40.3L212.5 40.3C213.1 40.3 213.6 40.4 214.2 40.5C214.7 40.6 215.2 40.8 215.5 41.1C215.9 41.4 216.2 41.7 216.4 42.1C216.6 42.5 216.7 43 216.7 43.6C216.7 44.1 216.6 44.6 216.3 45.1C216 45.6 215.7 45.9 215.2 46.1L215.2 46.3ZM212.3 45.3C212.5 45.3 212.6 45.3 212.8 45.2C213 45.2 213.1 45.1 213.3 45C213.4 44.9 213.6 44.8 213.7 44.6C213.8 44.4 213.8 44.2 213.8 44C213.8 43.6 213.7 43.3 213.4 43.1C213.2 42.9 212.8 42.8 212.4 42.8L209.6 42.8L209.6 45.3L212.3 45.3ZM214.3 49.3C214.3 48.8 214.1 48.4 213.8 48.1C213.5 47.8 213 47.6 212.4 47.6L209.6 47.6L209.6 51L212.4 51C212.8 51 213.1 50.9 213.3 50.8C213.5 50.7 213.7 50.6 213.9 50.4C214 50.2 214.1 50.1 214.2 49.9C214.2 49.7 214.3 49.5 214.3 49.3Z" />
				<path id="Layer" class="shp1" d="M222.1 53.4C222 53.5 221.9 53.5 221.7 53.5L219.6 53.5C219.4 53.5 219.3 53.5 219.3 53.4C219.2 53.3 219.2 53.2 219.2 53.1L219.2 40.7C219.2 40.5 219.2 40.4 219.3 40.4C219.4 40.3 219.5 40.3 219.6 40.3L221.7 40.3C221.9 40.3 222 40.3 222.1 40.4C222.2 40.5 222.2 40.6 222.2 40.7L222.2 53.1C222.1 53.3 222.1 53.4 222.1 53.4Z" />
				<path id="Layer" class="shp1" d="M233.5 42.8L230 42.8L230 53.1C230 53.3 230 53.4 229.9 53.4C229.8 53.5 229.7 53.5 229.5 53.5L227.4 53.5C227.2 53.5 227.1 53.5 227.1 53.4C227 53.3 227 53.2 227 53.1L227 42.8L223.5 42.8C223.3 42.8 223.1 42.7 223.1 42.4L223.1 40.7C223.1 40.5 223.1 40.4 223.2 40.4C223.3 40.3 223.3 40.3 223.5 40.3L233.5 40.3C233.7 40.3 233.8 40.3 233.8 40.4C233.9 40.5 233.9 40.6 233.9 40.7L233.9 42.4C233.9 42.6 233.8 42.8 233.5 42.8Z" />
				<path id="Layer" fill-rule="evenodd" class="shp1" d="M245.9 46.9C245.9 48 245.8 48.9 245.5 49.8C245.3 50.6 244.9 51.4 244.4 51.9C243.9 52.5 243.3 52.9 242.5 53.2C241.7 53.5 240.8 53.7 239.8 53.7C237.8 53.7 236.3 53.1 235.3 51.9C234.3 50.7 233.8 49 233.8 46.9C233.8 45.8 233.9 44.9 234.2 44C234.5 43.2 234.9 42.4 235.4 41.9C235.9 41.3 236.6 40.9 237.3 40.6C238 40.3 238.9 40.1 239.8 40.1C240.8 40.1 241.7 40.3 242.5 40.6C243.3 40.9 243.9 41.4 244.4 41.9C244.9 42.5 245.3 43.2 245.5 44C245.8 44.9 245.9 45.8 245.9 46.9ZM242.8 46.9C242.8 46.3 242.8 45.8 242.7 45.3C242.6 44.8 242.5 44.3 242.2 43.9C242 43.5 241.7 43.2 241.3 43C240.9 42.8 240.4 42.7 239.8 42.7C239.3 42.7 238.9 42.8 238.5 43C238.1 43.2 237.8 43.5 237.6 43.9C237.4 44.3 237.2 44.7 237.1 45.2C237 45.7 236.9 46.2 236.9 46.8C236.9 47.5 236.9 48.1 237 48.6C237.1 49.1 237.3 49.6 237.5 50C237.7 50.4 238 50.7 238.4 50.9C238.8 51.1 239.3 51.2 239.8 51.2C240.4 51.2 240.8 51.1 241.2 50.9C241.6 50.7 241.9 50.4 242.1 50C242.3 49.6 242.5 49.2 242.6 48.7C242.8 48 242.8 47.5 242.8 46.9Z" />
			</g>
			<g id="Layer">
				<g id="Layer">
					<path id="Layer" class="shp2" d="M191.2 62C190.5 63 189.1 63.3 188.1 62.7C187.9 62.6 187.5 62.3 187.2 62C185.3 62.5 183.1 63.5 183.1 64.6C183.1 66.3 188 67.6 189.6 67.6C191.3 67.6 192.6 66.2 192.6 64.6C192.7 63.4 192.1 62.5 191.2 62Z" />
					<path id="Layer" fill-rule="evenodd" class="shp1" d="M189.6 67.7C188.7 67.7 187 67.3 185.6 66.8C184.4 66.3 182.9 65.5 182.9 64.5C182.9 63.3 185.1 62.3 187.1 61.7L187.3 61.7C187.6 62 188 62.3 188.2 62.4C188.5 62.6 188.9 62.7 189.3 62.7C190 62.7 190.7 62.3 191.1 61.7L191.2 61.6L191.3 61.7C192.2 62.3 192.8 63.3 192.8 64.4C192.8 66.3 191.4 67.7 189.6 67.7ZM187.2 62C185.4 62.5 183.2 63.5 183.2 64.5C183.2 65.2 184.1 65.9 185.8 66.5C187.3 67.1 188.9 67.4 189.7 67.4C191.3 67.4 192.6 66.1 192.6 64.5C192.6 63.5 192.1 62.6 191.3 62.1C190.8 62.7 190.1 63.1 189.4 63.1C189 63.1 188.5 63 188.1 62.7C187.8 62.6 187.5 62.3 187.2 62Z" />
					<path id="Layer" class="shp3" d="M191.2 62C191.2 62 191.2 61.9 191.3 61.9C192 60.8 191.6 59.4 190.5 58.7C189.4 58 185.7 57 185 58.1C184.5 58.9 185.9 60.8 187.1 61.9C188.1 61.6 189 61.5 189.5 61.5C190.2 61.5 190.8 61.7 191.2 62Z" />
				</g>
				<path id="Layer" fill-rule="evenodd" class="shp1" d="M191.2 62C190.7 61.7 190.2 61.6 189.7 61.6C189.1 61.6 188.3 61.8 187.3 62L187.1 62C186.1 61.1 184.3 59 184.9 58C185.1 57.6 185.6 57.5 186.4 57.5C187.8 57.5 189.8 58.2 190.6 58.6C191.2 58.9 191.6 59.5 191.7 60.1C191.9 60.7 191.8 61.4 191.4 62C191.4 62 191.4 62.1 191.3 62.1L191.2 62ZM189.6 61.4C190.2 61.4 190.7 61.5 191.2 61.8C191.5 61.3 191.6 60.7 191.5 60.1C191.4 59.5 191 59.1 190.5 58.8C189.8 58.4 187.8 57.7 186.5 57.7C185.8 57.7 185.4 57.8 185.3 58.1C184.9 58.8 186 60.5 187.4 61.7C188.2 61.5 189.1 61.4 189.6 61.4Z" />
			</g>
			<g id="Layer">
				<path id="Layer" fill-rule="evenodd" class="shp1" d="M206.9 66.5C206.9 66.7 206.8 66.8 206.6 66.9C206.4 67 206.2 67.1 206 67.1C205.8 67.2 205.5 67.2 205.3 67.2C205.1 67.2 204.8 67.3 204.6 67.3C204.4 67.3 204.1 67.3 203.9 67.3C203.3 67.3 202.8 67.2 202.5 67.1C202.1 67 201.8 66.8 201.6 66.6C201.4 66.4 201.2 66.2 201.1 65.9C201 65.6 201 65.4 201 65.1C201 64.8 201.1 64.5 201.2 64.2C201.3 63.9 201.5 63.7 201.7 63.5C201.9 63.3 202.2 63.1 202.6 63C203 62.9 203.4 62.8 203.9 62.8L205.4 62.8L205.4 62.6C205.4 62.4 205.4 62.3 205.3 62.1C205.3 62 205.2 61.8 205.1 61.7C205 61.6 204.9 61.5 204.7 61.5C204.5 61.4 204.3 61.4 204 61.4C203.7 61.4 203.4 61.4 203 61.5C202.6 61.5 202.4 61.6 202.1 61.7C202 61.7 201.9 61.7 201.9 61.7L201.8 61.6L201.6 60.9C201.6 60.8 201.6 60.7 201.7 60.6C202.1 60.5 202.5 60.4 202.9 60.3C203.3 60.2 203.8 60.2 204.1 60.2C205 60.2 205.7 60.4 206.1 60.8C206.5 61.2 206.7 61.8 206.7 62.5L206.7 66.5L206.9 66.5ZM203.5 64.1C203.3 64.1 203.2 64.2 203 64.2C202.9 64.3 202.7 64.4 202.6 64.5C202.5 64.6 202.4 64.9 202.4 65.1C202.4 65.5 202.5 65.7 202.8 65.9C203.1 66 203.4 66.1 203.8 66.1C203.9 66.1 203.9 66.1 204.1 66.1C204.2 66.1 204.3 66.1 204.4 66.1C204.5 66.1 204.7 66.1 204.8 66C204.9 66 205.1 65.9 205.2 65.9L205.2 64.1C205.1 64.1 203.7 64.1 203.5 64.1Z" />
				<path id="Layer" fill-rule="evenodd" class="shp1" d="M216.7 66.5C216.7 66.7 216.6 66.8 216.4 66.9C216.2 67 216 67.1 215.8 67.1C215.6 67.2 215.3 67.2 215.1 67.2C214.9 67.2 214.6 67.3 214.4 67.3C214.2 67.3 213.9 67.3 213.7 67.3C213.1 67.3 212.6 67.2 212.2 67.1C211.8 67 211.5 66.8 211.3 66.6C211.1 66.4 210.9 66.2 210.8 65.9C210.7 65.6 210.7 65.4 210.7 65.1C210.7 64.8 210.8 64.5 210.9 64.2C211 63.9 211.2 63.7 211.4 63.5C211.6 63.3 211.9 63.1 212.3 63C212.7 62.9 213.1 62.8 213.6 62.8L215.1 62.8L215.1 62.6C215.1 62.4 215.1 62.3 215 62.1C215 62 214.9 61.8 214.8 61.7C214.7 61.6 214.6 61.5 214.4 61.5C214.2 61.4 214 61.4 213.7 61.4C213.4 61.4 213.1 61.4 212.7 61.5C212.3 61.5 212.1 61.6 211.8 61.7C211.7 61.7 211.6 61.7 211.6 61.7L211.5 61.6L211.3 60.9C211.3 60.8 211.3 60.7 211.4 60.6C211.8 60.5 212.2 60.4 212.6 60.3C213 60.2 213.5 60.2 213.9 60.2C214.8 60.2 215.5 60.4 215.9 60.8C216.3 61.2 216.5 61.8 216.5 62.5L216.5 66.5L216.7 66.5ZM213.4 64.1C213.2 64.1 213.1 64.2 212.9 64.2C212.7 64.3 212.6 64.4 212.5 64.5C212.4 64.6 212.3 64.9 212.3 65.1C212.3 65.5 212.4 65.7 212.7 65.9C213 66 213.3 66.1 213.7 66.1C213.8 66.1 213.8 66.1 214 66.1C214.1 66.1 214.2 66.1 214.4 66.1C214.5 66.1 214.7 66.1 214.8 66C214.9 66 215.1 65.9 215.2 65.9L215.2 64.1C215 64.1 213.6 64.1 213.4 64.1Z" />
				<path id="Layer" fill-rule="evenodd" class="shp1" d="M227.6 60.4C228.6 60.4 229.4 60.7 229.9 61.2C230.4 61.7 230.6 62.4 230.6 63.3C230.6 63.5 230.6 63.7 230.5 63.9C230.4 64 230.4 64.2 230.3 64.2C230.2 64.3 230.1 64.3 230 64.4C229.9 64.4 229.7 64.5 229.6 64.5L226 64.5C226 64.8 226.1 65.1 226.2 65.3C226.3 65.5 226.4 65.7 226.6 65.8C226.8 65.9 227 66 227.2 66.1C227.4 66.2 227.7 66.2 227.9 66.2C228.2 66.2 228.5 66.2 228.7 66.1C229 66 229.2 65.9 229.4 65.9C229.5 65.8 229.6 65.9 229.7 66L230.1 66.7C230.2 66.8 230.1 66.9 230 67C229.7 67.2 229.3 67.3 228.9 67.4C228.5 67.5 228.1 67.5 227.8 67.5C226.7 67.5 225.9 67.2 225.4 66.7C224.8 66.1 224.5 65.3 224.5 64.1C224.5 63.5 224.6 63 224.7 62.6C224.9 62.2 225.1 61.8 225.4 61.5C225.7 61.2 226 61 226.4 60.8C226.7 60.4 227.1 60.4 227.6 60.4ZM227.6 61.6C227.4 61.6 227.2 61.6 227 61.7C226.8 61.8 226.7 61.9 226.5 62.1C226.4 62.3 226.3 62.4 226.2 62.6C226.1 62.8 226.1 63 226.1 63.2L229.1 63.2C229.1 63 229.1 62.8 229 62.6C229 62.4 228.9 62.2 228.8 62.1C228.7 62 228.5 61.8 228.4 61.7C228.1 61.7 227.9 61.6 227.6 61.6Z" />
				<path id="Layer" fill-rule="evenodd" class="shp1" d="M243.5 66.5C243.5 66.7 243.4 66.8 243.2 66.9C243 67 242.8 67.1 242.6 67.1C242.4 67.2 242.1 67.2 241.9 67.2C241.7 67.2 241.4 67.3 241.2 67.3C241 67.3 240.7 67.3 240.5 67.3C239.9 67.3 239.4 67.2 239 67.1C238.6 67 238.3 66.8 238.1 66.6C237.9 66.4 237.7 66.2 237.6 65.9C237.5 65.6 237.5 65.4 237.5 65.1C237.5 64.8 237.6 64.5 237.7 64.2C237.8 63.9 238 63.7 238.2 63.5C238.4 63.3 238.7 63.1 239.1 63C239.5 62.9 239.9 62.8 240.4 62.8L241.9 62.8L241.9 62.6C241.9 62.4 241.9 62.3 241.8 62.1C241.8 62 241.7 61.8 241.6 61.7C241.5 61.6 241.4 61.5 241.2 61.5C241 61.4 240.8 61.4 240.5 61.4C240.2 61.4 239.9 61.4 239.5 61.5C239.2 61.5 238.9 61.6 238.6 61.7C238.5 61.7 238.4 61.7 238.4 61.7L238.3 61.6L238.1 60.9C238.1 60.8 238.1 60.7 238.2 60.6C238.6 60.5 239 60.4 239.4 60.3C239.8 60.2 240.3 60.2 240.6 60.2C241.5 60.2 242.2 60.4 242.6 60.8C243 61.2 243.2 61.8 243.2 62.5L243.2 66.5L243.5 66.5ZM240.1 64.1C239.9 64.1 239.8 64.2 239.6 64.2C239.4 64.3 239.3 64.4 239.2 64.5C239.1 64.6 239.1 64.9 239.1 65.1C239.1 65.5 239.2 65.7 239.5 65.9C239.8 66 240.1 66.1 240.5 66.1C240.6 66.1 240.6 66.1 240.8 66.1C240.9 66.1 241 66.1 241.1 66.1C241.2 66.1 241.4 66.1 241.5 66C241.6 66 241.8 65.9 241.9 65.9L241.9 64.1C241.8 64.1 240.3 64.1 240.1 64.1Z" />
				<path id="Layer" class="shp1" d="M201.2 58.3C201.2 58.3 201.1 58.2 201 58.2L197.3 58.2C196.9 58.2 196.5 58.3 196.2 58.4C195.9 58.5 195.7 58.7 195.5 58.9C195.3 59.1 195.2 59.4 195.1 59.6C195 59.9 195 60.2 195 60.5L195 67C195 67.1 195 67.2 195.1 67.2C195.2 67.2 195.2 67.3 195.3 67.3L195.7 67.3C196 67.3 196.6 67.1 196.6 66.3L196.6 63.4L200.6 63.4C200.7 63.4 200.8 63.4 200.8 63.3C200.8 63.2 200.9 63.2 200.9 63.1L200.9 62.4C200.9 62.3 200.9 62.2 200.8 62.2C200.8 62.2 200.7 62.1 200.6 62.1L196.6 62.1L196.6 60.6C196.6 60.3 196.7 60.1 196.8 60C196.9 59.9 197.2 59.8 197.5 59.8L201 59.8C201.1 59.8 201.2 59.8 201.2 59.7C201.2 59.7 201.3 59.6 201.3 59.5L201.3 58.7C201.2 58.5 201.2 58.4 201.2 58.3Z" />
				<path id="Layer" fill-rule="evenodd" class="shp1" d="M223.9 63.9C223.9 64.4 223.8 64.9 223.7 65.3C223.6 65.7 223.4 66.1 223.1 66.4C222.9 66.8 222.5 67 222.1 67.2C221.7 67.4 221.2 67.5 220.6 67.5C220.1 67.5 219.7 67.5 219.2 67.4C218.7 67.3 218.3 67.2 217.9 67C217.8 67 217.7 66.9 217.7 66.9C217.7 66.8 217.7 59 217.7 58.9C217.7 58.1 218.3 57.9 218.6 57.9C218.7 57.9 219.2 57.9 219.2 57.9C219.3 57.9 219.3 58 219.3 58.1L219.3 60.6C219.5 60.5 219.8 60.4 220.1 60.4C220.4 60.3 220.7 60.3 220.9 60.3C221.5 60.3 221.9 60.4 222.3 60.6C222.6 60.8 223 61 223.2 61.3C223.4 61.6 223.6 62 223.7 62.4C223.8 62.9 223.8 63.3 223.9 63.9ZM222.1 64C222.1 63.2 222 62.7 221.7 62.3C221.3 61.9 220.9 61.7 220.4 61.7C220.3 61.7 220.1 61.7 219.8 61.7C219.6 61.8 219.3 61.8 219 61.9L219 66C219.3 66 219.5 66.1 219.7 66.1C219.9 66.1 220.1 66.1 220.3 66.1C220.6 66.1 220.9 66.1 221.1 66C221.3 65.9 221.5 65.8 221.7 65.6C221.9 65.4 222 65.2 222.1 64.9C222.2 64.6 222.3 64.3 222.1 64Z" />
				<path id="Layer" class="shp1" d="M234 66.9L233.9 66.2C233.9 66.1 233.9 66.1 233.8 66.1L233.7 66.1C233.6 66.1 233.6 66.1 233.5 66.1C233.4 66.1 233.3 66.1 233.3 66.1C233.1 66.1 233 66.1 232.9 66C232.8 65.9 232.8 65.8 232.8 65.5L232.8 58.1C232.8 58 232.8 57.9 232.7 57.9C232.7 57.9 232.6 57.9 232.5 57.9L232 57.9C231.7 57.9 231.2 58.1 231.1 58.8L231.1 65.9C231.1 66.5 231.2 66.8 231.5 67.1C231.7 67.3 232.1 67.4 232.6 67.4C232.8 67.4 233 67.4 233.2 67.4C233.4 67.4 233.6 67.3 233.8 67.3C233.9 67.3 233.9 67.2 234 67.2C234 67.1 234 67 234 66.9Z" />
				<path id="Layer" class="shp1" d="M237.4 66.9L237.3 66.2C237.3 66.1 237.3 66.1 237.2 66.1L237.1 66.1C237 66.1 237 66.1 236.9 66.1C236.8 66.1 236.7 66.1 236.7 66.1C236.5 66.1 236.4 66.1 236.3 66C236.2 65.9 236.2 65.8 236.2 65.5L236.2 58.1C236.2 58 236.2 57.9 236.1 57.9C236.1 57.9 236 57.9 235.9 57.9L235.5 57.9C235.2 57.9 234.6 58.1 234.6 58.9L234.6 65.9C234.6 66.5 234.7 66.8 235 67.1C235.2 67.3 235.6 67.4 236.1 67.4C236.3 67.4 236.5 67.4 236.7 67.4C236.9 67.4 237.1 67.3 237.3 67.3C237.4 67.3 237.4 67.2 237.5 67.2C237.4 67.1 237.4 67 237.4 66.9Z" />
				<path id="Layer" class="shp1" d="M210.6 66.9L210.5 66.2C210.5 66.1 210.5 66.1 210.4 66.1C210.4 66.1 210.3 66.1 210.2 66.1C210.1 66.1 210.1 66.1 210 66.1C209.9 66.1 209.8 66.1 209.8 66.1C209.6 66.1 209.5 66.1 209.4 66C209.3 65.9 209.3 65.8 209.3 65.5L209.3 58.1C209.3 58 209.3 57.9 209.2 57.9C209.2 57.9 209.1 57.9 209 57.9L208.6 57.9C208.3 57.9 207.7 58.1 207.7 58.9L207.7 65.9C207.7 66.5 207.8 66.8 208 67.1C208.2 67.3 208.6 67.4 209.1 67.4C209.3 67.4 209.5 67.4 209.7 67.4C209.9 67.4 210.1 67.3 210.3 67.3C210.4 67.3 210.4 67.2 210.5 67.2C210.6 67.1 210.6 67 210.6 66.9Z" />
			</g>
		</g>
		<g id="Layer">
			<path id="Layer" class="shp4" d="M162.5 24.2L84.7 24.2C82.7 24.2 81 25.9 81 27.9L81 50.6L81 73.9C81 75.9 82.7 77.6 84.7 77.6L162.5 77.6C164.5 77.6 166.2 75.9 166.2 73.9L166.2 50.5L166.2 27.8C166.2 25.8 164.6 24.2 162.5 24.2Z" />
			<g id="Layer">
				<path id="Layer" class="shp1" d="M114.7 50.5L114.7 50.5L114.7 50.5Z" />
				<path id="Layer" class="shp1" d="M148.4 52.4L146.5 50.5L143.6 47.6L144 47.5C146.6 47 148.3 45.4 148.3 42.3C148.3 38.7 145.3 36.7 142.2 36.7L135.9 36.7C135.8 36.7 135.8 36.7 135.7 36.7C135.7 36.7 135.6 36.8 135.6 36.9L135.6 38.8L135.6 38.8L135.6 50.5L135.6 52.7C135.6 52.8 135.7 52.9 135.7 52.9C135.7 52.9 135.8 52.9 135.9 52.9L135.9 52.9L135.9 52.9L138.5 52.5C138.6 52.5 138.6 52.5 138.6 52.5C138.7 52.5 138.7 52.4 138.7 52.3L138.7 50.5L138.7 50.4L138.7 39.8L142.2 39.8C143.7 39.8 145 40.9 145 42.3C145 43.7 143.9 44.5 142.4 44.8C140.9 45.2 140.2 46.3 140.2 47.4C140.2 48.1 140.5 48.9 141.1 49.5C141.6 50.1 141.9 50.4 142 50.5L142 50.5L146.2 54.8C146.4 55 146.7 55.1 147.1 55.1C148 55.1 148.7 54.4 148.7 53.5C148.8 53 148.6 52.7 148.4 52.4Z" />
				<path id="Layer" class="shp1" d="M114.2 48.3C113.9 48.1 113.6 48 113.3 48C112.9 48 112.4 48.2 112.2 48.5C112.1 48.6 111.9 48.8 111.8 48.9C110.7 49.9 109.3 50.5 107.8 50.5C104.5 50.5 101.8 47.8 101.8 44.5C101.8 41.2 104.5 38.6 107.8 38.6C108.9 38.6 110.4 38.8 111.7 40L111.7 40C111.7 40 111.8 40 111.9 40L114.7 39.6C115 39.6 114.8 39.3 114.8 39.3C114.3 38.4 112.2 35.2 107.4 35.2C102.3 35.2 98.5 39.2 98.5 44.4C98.5 46.7 99.3 48.7 100.7 50.3C102.4 52.3 104.9 53.6 107.7 53.6C111.1 53.6 113.4 51.8 114.4 50.7C114.4 50.7 114.5 50.5 114.7 50.3C114.8 50.1 115 49.7 114.9 49.4C114.9 49.1 114.6 48.6 114.2 48.3Z" />
				<path id="Layer" class="shp1" d="M131.6 36.1C130.3 36.1 129.5 37 129 38.2L125.4 45.8C125.4 45.8 125.4 45.9 125.3 45.9C125.2 45.9 125.2 45.8 125.2 45.8L122.1 40.6L122.1 40.6L121.2 39C121.1 38.9 121.1 38.9 121 38.9C120.9 38.9 120.9 38.9 120.9 38.9L116.7 39.5L116.6 39.5C116.6 39.5 116.5 39.6 116.5 39.7L116.5 41.6L116.5 50.5L116.5 53.5C116.5 54.4 117.2 55.1 118.1 55.1C119 55.1 119.7 54.4 119.7 53.5L119.7 50.5L119.7 42.9L124.3 50.5L125.3 52.1C125.3 52.1 125.3 52.2 125.4 52.2L125.5 52.1L126.3 50.5L130.9 41.2L130.9 50.5L130.9 53.4L130.9 53.4C130.9 53.5 130.9 53.6 131 53.6C131 53.6 131.1 53.6 131.2 53.6L131.2 53.6L131.2 53.6L133.9 53.2L133.9 53.2C134 53.2 134 53.2 134 53.2C134.1 53.2 134.1 53.1 134.1 53L134.1 53L134.1 50.5L134.1 38.5C134 37.2 132.9 36.1 131.6 36.1Z" />
			</g>
			<g id="Layer">
				<g id="Layer">
					<g id="Layer">
						<path id="Layer" class="shp2" d="M101.7 61.9C101 62.9 99.6 63.2 98.6 62.6C98.4 62.5 98 62.2 97.7 61.9C95.8 62.4 93.6 63.4 93.6 64.5C93.6 66.2 98.5 67.5 100.1 67.5C101.8 67.5 103.1 66.1 103.1 64.5C103.1 63.4 102.5 62.4 101.7 61.9Z" />
						<path id="Layer" fill-rule="evenodd" class="shp1" d="M100.1 67.6C99.2 67.6 97.5 67.2 96.1 66.7C94.9 66.2 93.4 65.4 93.4 64.4C93.4 63.2 95.6 62.2 97.6 61.6L97.8 61.6C98.1 61.9 98.5 62.2 98.7 62.3C99 62.5 99.4 62.6 99.8 62.6C100.5 62.6 101.2 62.2 101.6 61.6L101.7 61.5L101.8 61.6C102.7 62.2 103.3 63.2 103.3 64.3C103.2 66.2 101.8 67.6 100.1 67.6ZM97.6 62C95.8 62.5 93.6 63.5 93.6 64.5C93.6 65.2 94.5 65.9 96.2 66.5C97.7 67.1 99.3 67.4 100.1 67.4C101.7 67.4 103 66.1 103 64.5C103 63.5 102.5 62.6 101.7 62.1C101.2 62.7 100.5 63.1 99.8 63.1C99.4 63.1 98.9 63 98.5 62.7C98.3 62.5 97.9 62.3 97.6 62Z" />
						<path id="Layer" class="shp3" d="M101.7 61.9C101.7 61.9 101.7 61.8 101.8 61.8C102.5 60.7 102.1 59.3 101 58.6C99.9 57.9 96.2 56.9 95.5 58C95 58.8 96.4 60.7 97.6 61.8C98.6 61.5 99.5 61.4 100 61.4C100.7 61.4 101.2 61.6 101.7 61.9Z" />
					</g>
					<path id="Layer" fill-rule="evenodd" class="shp1" d="M101.6 62C101.1 61.7 100.6 61.6 100.1 61.6C99.5 61.6 98.7 61.8 97.7 62L97.5 62C96.5 61.1 94.7 59 95.3 58C95.5 57.6 96 57.5 96.8 57.5C98.2 57.5 100.2 58.2 101 58.6C101.6 58.9 102 59.5 102.1 60.1C102.3 60.7 102.2 61.4 101.8 62C101.8 62 101.8 62.1 101.7 62.1L101.6 62ZM100.1 61.3C100.7 61.3 101.2 61.4 101.7 61.7C102 61.2 102.1 60.6 102 60C101.9 59.4 101.5 59 101 58.7C100.3 58.3 98.3 57.6 97 57.6C96.3 57.6 95.9 57.7 95.8 58C95.4 58.7 96.5 60.4 97.9 61.6C98.6 61.4 99.5 61.3 100.1 61.3Z" />
				</g>
				<g id="Layer">
					<path id="Layer" fill-rule="evenodd" class="shp1" d="M117.3 66.4C117.3 66.6 117.2 66.7 117 66.8C116.8 66.9 116.6 67 116.4 67C116.2 67.1 115.9 67.1 115.7 67.1C115.5 67.1 115.2 67.2 115 67.2C114.8 67.2 114.5 67.2 114.3 67.2C113.7 67.2 113.2 67.1 112.9 67C112.5 66.9 112.2 66.7 112 66.5C111.8 66.3 111.6 66.1 111.5 65.8C111.4 65.5 111.4 65.3 111.4 65C111.4 64.7 111.5 64.4 111.6 64.1C111.7 63.8 111.9 63.6 112.1 63.4C112.3 63.2 112.6 63 113 62.9C113.4 62.8 113.8 62.7 114.3 62.7L115.8 62.7L115.8 62.5C115.8 62.3 115.8 62.2 115.7 62C115.7 61.9 115.6 61.7 115.5 61.6C115.4 61.5 115.3 61.4 115.1 61.4C114.9 61.3 114.7 61.3 114.4 61.3C114.1 61.3 113.8 61.3 113.4 61.4C113 61.4 112.8 61.5 112.5 61.6C112.4 61.6 112.3 61.6 112.3 61.6L112.2 61.5L112 60.8C112 60.7 112 60.6 112.1 60.5C112.5 60.4 112.9 60.3 113.3 60.2C113.7 60.1 114.2 60.1 114.5 60.1C115.4 60.1 116.1 60.3 116.5 60.7C116.9 61.1 117.1 61.7 117.1 62.4L117.1 66.4L117.3 66.4ZM113.9 64C113.7 64 113.6 64.1 113.4 64.1C113.3 64.2 113.1 64.3 113 64.4C112.9 64.5 112.8 64.8 112.8 65C112.8 65.4 112.9 65.6 113.2 65.8C113.5 65.9 113.8 66 114.2 66C114.3 66 114.3 66 114.5 66C114.6 66 114.7 66 114.8 66C114.9 66 115.1 66 115.2 65.9C115.3 65.9 115.5 65.8 115.6 65.8L115.6 64C115.5 64 114.1 64 113.9 64Z" />
					<path id="Layer" fill-rule="evenodd" class="shp1" d="M127.2 66.4C127.2 66.6 127.1 66.7 126.9 66.8C126.7 66.9 126.5 67 126.3 67C126.1 67.1 125.8 67.1 125.6 67.1C125.4 67.1 125.1 67.2 124.9 67.2C124.7 67.2 124.4 67.2 124.2 67.2C123.6 67.2 123.1 67.1 122.7 67C122.3 66.9 122 66.7 121.8 66.5C121.6 66.3 121.4 66.1 121.3 65.8C121.2 65.5 121.2 65.3 121.2 65C121.2 64.7 121.3 64.4 121.4 64.1C121.5 63.8 121.7 63.6 121.9 63.4C122.1 63.2 122.4 63 122.8 62.9C123.2 62.8 123.6 62.7 124.1 62.7L125.6 62.7L125.6 62.5C125.6 62.3 125.6 62.2 125.5 62C125.5 61.9 125.4 61.7 125.3 61.6C125.2 61.5 125.1 61.4 124.9 61.4C124.7 61.3 124.5 61.3 124.2 61.3C123.9 61.3 123.6 61.3 123.2 61.4C122.8 61.4 122.6 61.5 122.3 61.6C122.2 61.6 122.1 61.6 122.1 61.6L122 61.5L121.8 60.8C121.8 60.7 121.8 60.6 121.9 60.5C122.3 60.4 122.7 60.3 123.1 60.2C123.5 60.1 124 60.1 124.4 60.1C125.3 60.1 126 60.3 126.4 60.7C126.8 61.1 127 61.7 127 62.4L127 66.4L127.2 66.4ZM123.8 64C123.6 64 123.5 64.1 123.3 64.1C123.1 64.2 123 64.3 122.9 64.4C122.8 64.5 122.7 64.8 122.7 65C122.7 65.4 122.8 65.6 123.1 65.8C123.4 65.9 123.7 66 124.1 66C124.2 66 124.2 66 124.4 66C124.5 66 124.6 66 124.8 66C124.9 66 125.1 66 125.2 65.9C125.3 65.9 125.5 65.8 125.6 65.8L125.6 64C125.4 64 124 64 123.8 64Z" />
					<path id="Layer" fill-rule="evenodd" class="shp1" d="M138 60.3C139 60.3 139.8 60.6 140.3 61.1C140.8 61.6 141 62.3 141 63.2C141 63.4 141 63.6 140.9 63.8C140.8 63.9 140.8 64.1 140.7 64.1C140.6 64.2 140.5 64.2 140.4 64.3C140.3 64.3 140.1 64.4 140 64.4L136.5 64.4C136.5 64.7 136.6 65 136.7 65.2C136.8 65.4 136.9 65.6 137.1 65.7C137.3 65.8 137.5 65.9 137.7 66C137.9 66.1 138.2 66.1 138.4 66.1C138.7 66.1 139 66.1 139.2 66C139.5 65.9 139.7 65.8 139.9 65.8C140 65.7 140.1 65.8 140.2 65.9L140.6 66.6C140.7 66.7 140.6 66.8 140.5 66.9C140.2 67.1 139.8 67.2 139.4 67.3C139 67.4 138.6 67.4 138.3 67.4C137.2 67.4 136.4 67.1 135.9 66.6C135.3 66 135 65.2 135 64C135 63.4 135.1 62.9 135.2 62.5C135.4 62.1 135.6 61.7 135.9 61.4C136.2 61.1 136.5 60.9 136.9 60.7C137.1 60.4 137.5 60.3 138 60.3ZM138 61.5C137.8 61.5 137.6 61.5 137.4 61.6C137.2 61.7 137.1 61.8 136.9 62C136.8 62.2 136.7 62.3 136.6 62.5C136.5 62.7 136.5 62.9 136.5 63.1L139.5 63.1C139.5 62.9 139.5 62.7 139.4 62.5C139.4 62.3 139.3 62.1 139.2 62C139.1 61.9 138.9 61.7 138.8 61.6C138.6 61.6 138.3 61.5 138 61.5Z" />
					<path id="Layer" fill-rule="evenodd" class="shp1" d="M153.9 66.4C153.9 66.6 153.8 66.7 153.6 66.8C153.4 66.9 153.2 67 153 67C152.8 67.1 152.5 67.1 152.3 67.1C152.1 67.1 151.8 67.2 151.6 67.2C151.4 67.2 151.1 67.2 150.9 67.2C150.3 67.2 149.8 67.1 149.4 67C149 66.9 148.7 66.7 148.5 66.5C148.3 66.3 148.1 66.1 148 65.8C147.9 65.5 147.9 65.3 147.9 65C147.9 64.7 148 64.4 148.1 64.1C148.2 63.8 148.4 63.6 148.6 63.4C148.8 63.2 149.1 63 149.5 62.9C149.9 62.8 150.3 62.7 150.8 62.7L152.3 62.7L152.3 62.5C152.3 62.3 152.3 62.2 152.2 62C152.2 61.9 152.1 61.7 152 61.6C151.9 61.5 151.8 61.4 151.6 61.4C151.4 61.3 151.2 61.3 150.9 61.3C150.6 61.3 150.3 61.3 149.9 61.4C149.6 61.4 149.3 61.5 149 61.6C148.9 61.6 148.8 61.6 148.8 61.6L148.7 61.5L148.5 60.8C148.5 60.7 148.5 60.6 148.6 60.5C149 60.4 149.4 60.3 149.8 60.2C150.2 60.1 150.7 60.1 151 60.1C151.9 60.1 152.6 60.3 153 60.7C153.4 61.1 153.6 61.7 153.6 62.4L153.6 66.4L153.9 66.4ZM150.6 64C150.4 64 150.3 64.1 150.1 64.1C149.9 64.2 149.8 64.3 149.7 64.4C149.6 64.5 149.6 64.8 149.6 65C149.6 65.4 149.7 65.6 150 65.8C150.3 65.9 150.6 66 151 66C151.1 66 151.1 66 151.3 66C151.4 66 151.5 66 151.6 66C151.7 66 151.9 66 152 65.9C152.1 65.9 152.3 65.8 152.4 65.8L152.4 64C152.3 64 150.8 64 150.6 64Z" />
					<path id="Layer" class="shp1" d="M111.6 58.3C111.6 58.3 111.5 58.2 111.4 58.2L107.7 58.2C107.3 58.2 106.9 58.3 106.6 58.4C106.3 58.5 106.1 58.7 105.9 58.9C105.7 59.1 105.6 59.4 105.5 59.6C105.4 59.9 105.4 60.2 105.4 60.5L105.4 66.9C105.4 67 105.4 67.1 105.5 67.1C105.6 67.1 105.6 67.2 105.7 67.2L106.1 67.2C106.4 67.2 107 67 107 66.2L107 63.3L111 63.3C111.1 63.3 111.2 63.3 111.2 63.2C111.2 63.1 111.3 63.1 111.3 63L111.3 62.3C111.3 62.2 111.3 62.1 111.2 62.1C111.2 62.1 111.1 62 111 62L107 62L107 60.5C107 60.2 107.1 60 107.2 59.9C107.3 59.8 107.6 59.7 107.9 59.7L111.4 59.7C111.5 59.7 111.6 59.7 111.6 59.6C111.6 59.6 111.7 59.5 111.7 59.4L111.7 58.6C111.7 58.4 111.7 58.3 111.6 58.3Z" />
					<path id="Layer" fill-rule="evenodd" class="shp1" d="M134.3 63.9C134.3 64.4 134.2 64.9 134.1 65.3C134 65.7 133.8 66.1 133.5 66.4C133.3 66.8 132.9 67 132.5 67.2C132.1 67.4 131.6 67.5 131 67.5C130.5 67.5 130.1 67.5 129.6 67.4C129.1 67.3 128.7 67.2 128.3 67C128.2 67 128.1 66.9 128.1 66.9C128.1 66.8 128.1 59 128.1 58.9C128.1 58.1 128.7 57.9 129 57.9C129.1 57.9 129.6 57.9 129.6 57.9C129.7 57.9 129.7 58 129.7 58.1L129.7 60.6C129.9 60.5 130.2 60.4 130.5 60.4C130.8 60.3 131.1 60.3 131.3 60.3C131.9 60.3 132.3 60.4 132.7 60.6C133 60.8 133.4 61 133.6 61.3C133.8 61.6 134 62 134.1 62.4C134.2 62.8 134.3 63.2 134.3 63.9ZM132.6 63.9C132.6 63.1 132.5 62.6 132.2 62.2C131.8 61.8 131.4 61.6 130.9 61.6C130.8 61.6 130.6 61.6 130.3 61.6C130.1 61.7 129.8 61.7 129.5 61.8L129.5 65.9C129.8 65.9 130 66 130.2 66C130.4 66 130.6 66 130.8 66C131.1 66 131.4 66 131.6 65.9C131.8 65.8 132 65.7 132.2 65.5C132.4 65.3 132.5 65.1 132.6 64.8C132.6 64.6 132.7 64.2 132.6 63.9Z" />
					<path id="Layer" class="shp1" d="M144.4 66.9L144.3 66.2C144.3 66.1 144.3 66.1 144.2 66.1L144.1 66.1C144 66.1 144 66.1 143.9 66.1C143.8 66.1 143.7 66.1 143.7 66.1C143.5 66.1 143.4 66.1 143.3 66C143.2 65.9 143.2 65.8 143.2 65.5L143.2 58C143.2 57.9 143.2 57.8 143.1 57.8C143.1 57.8 143 57.8 142.9 57.8L142.5 57.8C142.2 57.8 141.7 58 141.6 58.7L141.6 65.8C141.6 66.4 141.7 66.7 142 67C142.2 67.2 142.6 67.3 143.1 67.3C143.3 67.3 143.5 67.3 143.7 67.3C143.9 67.3 144.1 67.2 144.3 67.2C144.4 67.2 144.4 67.1 144.5 67.1C144.4 67 144.4 66.9 144.4 66.9Z" />
					<path id="Layer" class="shp1" d="M147.8 66.9L147.7 66.2C147.7 66.1 147.7 66.1 147.6 66.1L147.5 66.1C147.4 66.1 147.4 66.1 147.3 66.1C147.2 66.1 147.1 66.1 147.1 66.1C146.9 66.1 146.8 66.1 146.7 66C146.6 65.9 146.6 65.8 146.6 65.5L146.6 58C146.6 57.9 146.6 57.8 146.5 57.8C146.5 57.8 146.4 57.8 146.3 57.8L145.9 57.8C145.6 57.8 145 58 145 58.8L145 65.8C145 66.4 145.1 66.7 145.4 67C145.6 67.2 146 67.3 146.5 67.3C146.7 67.3 146.9 67.3 147.1 67.3C147.3 67.3 147.5 67.2 147.7 67.2C147.8 67.2 147.8 67.1 147.9 67.1C147.8 67 147.8 66.9 147.8 66.9Z" />
					<path id="Layer" class="shp1" d="M121.1 66.9L121 66.2C121 66.1 121 66.1 120.9 66.1C120.9 66.1 120.8 66.1 120.7 66.1C120.6 66.1 120.6 66.1 120.5 66.1C120.4 66.1 120.3 66.1 120.3 66.1C120.1 66.1 120 66.1 119.9 66C119.8 65.9 119.8 65.8 119.8 65.5L119.8 58C119.8 57.9 119.8 57.8 119.7 57.8C119.7 57.8 119.6 57.8 119.5 57.8L119.1 57.8C118.8 57.8 118.2 58 118.2 58.8L118.2 65.8C118.2 66.4 118.3 66.7 118.5 67C118.7 67.2 119.1 67.3 119.6 67.3C119.8 67.3 120 67.3 120.2 67.3C120.4 67.3 120.6 67.2 120.8 67.2C120.9 67.2 120.9 67.1 121 67.1C121.1 67 121.1 66.9 121.1 66.9Z" />
				</g>
			</g>
		</g>
		<path id="Layer" class="shp5" d="M38.9 0.4C42.4 0.4 45.8 2.2 48.5 4.9L65.4 25.8C66.6 24.7 68.1 24.1 69.6 24.1C73.3 24.1 77.1 27.3 77.1 31.7L77.1 64.3C77.1 71.4 71 77.5 63.9 77.5L63.9 77.5L31.3 77.5C25.1 77.5 21.2 70.2 25.3 65.9L4.3 49.1C-0.5 44.3 -2.2 37.2 3.4 31.6L31.2 3.8C33.6 1.4 36.2 0.4 38.9 0.4Z" />
		<path id="Layer" class="shp1" d="M44.2 52.9L41.5 52.9C41.1 52.9 40.9 52.8 40.9 52.4L40.9 39.1C40.9 38.7 41.1 38.6 41.5 38.6L44.2 38.6C44.7 38.6 44.8 38.7 44.8 39.1L44.8 52.4C44.8 52.8 44.7 52.9 44.2 52.9Z" />
		<path id="Layer" class="shp1" d="M55.5 49.1C55.9 48.9 56.1 48.9 56.2 49.3L56.9 51.3C57.1 51.6 57.1 51.8 56.7 52C55.1 52.8 53.3 53.1 51.8 53.1C47.7 53.1 45.5 50.7 45.5 45.9C45.5 41.4 48 38.6 52.1 38.6C53.6 38.6 55.1 38.9 56.3 39.5C56.8 39.7 56.8 39.8 56.6 40.2L55.9 42.2C55.7 42.6 55.6 42.6 55.1 42.4C54.2 42.1 53.3 41.9 52.5 41.9C50.4 41.9 49.6 43.7 49.6 45.8C49.6 48 50.2 49.5 52.6 49.5C53.6 49.7 54.7 49.4 55.5 49.1Z" />
		<path id="Layer" fill-rule="evenodd" class="shp1" d="M68.5 52.2C66.9 53 64.7 53.2 62.9 53.2C58.2 53.2 56.8 51.2 56.8 48.8C56.8 46.1 58.6 44.1 62.4 44.1L65.3 44.1L65.3 43.7C65.3 42.7 65 41.8 63 41.8C61.9 41.8 60.3 42 59.3 42.3C58.9 42.4 58.7 42.3 58.6 42L58.2 40.2C58.1 39.8 58.2 39.7 58.5 39.6C60.1 39 61.9 38.8 63.6 38.8C67.4 38.8 69.2 40.5 69.2 43.6L69.2 51.2C69.1 51.6 69 51.9 68.5 52.2ZM63.1 46.6C62.1 46.6 60.7 46.8 60.7 48.5C60.7 49.7 61.6 50.2 63 50.2C63.4 50.2 64.5 50.1 65.2 49.9L65.2 46.7L63.1 46.7L63.1 46.6Z" />
		<path id="Layer" class="shp1" d="M37.2 39.2C36.5 38.9 35.6 38.8 34.5 38.8C32.2 38.8 31.3 40.5 31.3 40.5L31.3 39.2C31.3 39.2 31.2 38.6 30.6 38.6L29.4 38.6L28.8 38.6L28.2 38.6C27.8 38.6 27.5 38.9 27.5 39.3L27.5 46.6C27.5 47.8 27 49.5 25 49.5C22.3 49.5 22.5 46.2 22.5 46.2L22.5 39.2C22.5 39 22.3 38.6 21.8 38.6L19.3 38.6C18.8 38.6 18.6 38.9 18.6 39.3L18.6 46C18.6 49.4 19.2 51.5 21.4 52.4C22.1 52.7 23 52.8 24.1 52.8C26.4 52.8 27.3 51.1 27.3 51.1L27.3 52.3C27.3 52.3 27.4 52.9 28 52.9L29.2 52.9L29.2 52.9L29.8 52.9L30.4 52.9C30.8 52.9 31.1 52.6 31.1 52.2L31.1 45C31.1 43.8 31.6 42.1 33.6 42.1C36.3 42.1 36.1 45.4 36.1 45.4L36.1 52.5C36.1 52.8 36.2 52.9 36.4 53C36.5 53 36.6 53 36.7 53L39.4 53C39.9 53 40 52.9 40 52.5L40 45.6C40.1 42.1 39.4 40 37.2 39.2Z" />
		<path id="Layer" fill-rule="evenodd" class="shp1" d="M42.9 36.2C41.9 36.2 41.4 35.6 41.4 34.5C41.4 33.4 42 32.8 42.9 32.8C43.9 32.8 44.4 33.5 44.4 34.5C44.4 35.5 43.9 36.2 42.9 36.2ZM42.9 33.4C42.4 33.4 42.2 33.9 42.2 34.4C42.2 35.1 42.4 35.5 42.9 35.5C43.4 35.5 43.6 35 43.6 34.4C43.6 33.9 43.5 33.4 42.9 33.4Z" />
		<path id="Layer" fill-rule="evenodd" class="shp1" d="M45.5 37.1L45 37.1C44.9 37.1 44.9 37.1 44.9 37L44.9 33.9C44.9 33.8 44.9 33.8 45 33.8C45.3 33.7 45.7 33.6 46.1 33.6C47 33.6 47.3 34.2 47.3 34.9C47.3 35.6 46.9 36.2 46.2 36.2C46 36.2 45.9 36.2 45.7 36.1L45.5 37.1ZM45.9 34.2C45.8 34.2 45.6 34.2 45.5 34.3L45.5 35.6C45.7 35.6 45.8 35.6 45.9 35.6C46.2 35.6 46.4 35.4 46.4 34.9C46.5 34.3 46.3 34.2 45.9 34.2Z" />
		<path id="Layer" fill-rule="evenodd" class="shp1" d="M48.7 36.2C47.9 36.2 47.5 35.7 47.5 34.9C47.5 34.1 48 33.6 48.7 33.6C49.5 33.6 49.9 34.1 49.9 34.9C50 35.7 49.6 36.2 48.7 36.2ZM48.8 34.1C48.5 34.1 48.3 34.4 48.3 34.8C48.3 35.3 48.4 35.5 48.8 35.5C49.2 35.5 49.3 35.2 49.3 34.8C49.2 34.4 49.1 34.1 48.8 34.1Z" />
		<path id="Layer" class="shp1" d="M51 36.1L50.5 36.1C50.4 36.1 50.4 36.1 50.4 36L50.4 34C50.4 33.8 50.5 33.6 50.7 33.6C50.8 33.6 50.9 33.6 51.1 33.6C51.5 33.6 51.9 33.7 52.3 33.9C52.4 33.9 52.3 34 52.3 34L52 34.4C52 34.5 51.9 34.4 51.9 34.4C51.7 34.3 51.5 34.2 51.3 34.2C51.2 34.2 51.2 34.2 51.1 34.2L51.1 36C51.1 36.1 51.1 36.1 51 36.1Z" />
		<path id="Layer" class="shp1" d="M54.1 36.1C53.9 36.2 53.6 36.2 53.4 36.2C52.9 36.2 52.6 36 52.6 35.5L52.6 34.1L52.3 34.1C52.2 34.1 52.2 34.1 52.2 34L52.2 33.7C52.2 33.6 52.2 33.6 52.3 33.6L52.7 33.5L52.7 33.1C52.7 33 52.7 33 52.8 33L53.2 32.9C53.3 32.9 53.3 32.9 53.3 33L53.3 33.6L53.8 33.6C53.9 33.6 53.9 33.6 53.9 33.7L53.9 34C53.9 34.1 53.9 34.1 53.8 34.1L53.3 34.1L53.3 35.3C53.3 35.5 53.4 35.5 53.6 35.5C53.7 35.5 53.9 35.5 54 35.5C54.1 35.5 54.1 35.5 54.1 35.5L54.1 36.1C54.1 36 54.2 36.1 54.1 36.1Z" />
		<path id="Layer" class="shp1" d="M56 35.6L56 33.7C56 33.6 56 33.6 56.1 33.6L56.6 33.6C56.7 33.6 56.7 33.6 56.7 33.7L56.7 35.7C56.7 35.9 56.6 36 56.4 36.1C56.3 36.1 55.9 36.1 55.7 36.1C54.8 36.1 54.4 35.8 54.4 34.9L54.4 33.7C54.4 33.6 54.4 33.6 54.5 33.6L55 33.6C55.1 33.6 55.1 33.6 55.1 33.7L55.1 35C55.1 35.4 55.2 35.6 55.6 35.6C55.7 35.6 55.8 35.6 56 35.6Z" />
		<path id="Layer" class="shp1" d="M57.9 34.1L57.9 36C57.9 36.1 57.9 36.1 57.8 36.1L57.3 36.1C57.2 36.1 57.2 36.1 57.2 36L57.2 34C57.2 33.8 57.3 33.7 57.5 33.6C57.6 33.6 58 33.6 58.2 33.6C59.1 33.6 59.5 33.9 59.5 34.8L59.5 36C59.5 36.1 59.5 36.1 59.4 36.1L58.9 36.1C58.8 36.1 58.8 36.1 58.8 36L58.8 34.7C58.8 34.3 58.7 34.1 58.2 34.1C58.1 34.1 58 34.1 57.9 34.1Z" />
		<path id="Layer" class="shp1" d="M60.4 33.4C60.2 33.4 60 33.2 60 33C60 32.8 60.2 32.6 60.4 32.6C60.6 32.6 60.8 32.8 60.8 33C60.8 33.2 60.6 33.4 60.4 33.4ZM60.6 36.1L60.1 36.1C60 36.1 60 36.1 60 36L60 33.7C60 33.6 60 33.6 60.1 33.6L60.6 33.6C60.7 33.6 60.7 33.6 60.7 33.7L60.7 36C60.7 36.1 60.7 36.1 60.6 36.1Z" />
		<path id="Layer" fill-rule="evenodd" class="shp1" d="M62.4 33.6C62.6 33.6 62.7 33.6 62.9 33.7L62.9 32.8C62.9 32.7 62.9 32.7 63 32.7L63.5 32.7C63.6 32.7 63.6 32.7 63.6 32.8C63.6 32.9 63.6 35.8 63.6 35.9C63.6 36.1 62.7 36.2 62.5 36.2C61.6 36.2 61.3 35.7 61.3 34.9C61.3 34.2 61.6 33.6 62.4 33.6ZM62.5 35.6C62.6 35.6 62.8 35.6 62.9 35.5L62.9 34.2C62.7 34.2 62.6 34.2 62.5 34.2C62.2 34.2 62 34.4 62 34.9C62 35.4 62.2 35.6 62.5 35.6Z" />
		<path id="Layer" fill-rule="evenodd" class="shp1" d="M66.1 36C65.8 36.1 65.4 36.2 65.1 36.2C64.2 36.2 64 35.8 64 35.4C64 34.9 64.3 34.5 65 34.5L65.5 34.5L65.5 34.4C65.5 34.2 65.4 34.1 65.1 34.1C64.9 34.1 64.6 34.1 64.4 34.2C64.3 34.2 64.3 34.2 64.3 34.1L64.2 33.8C64.2 33.7 64.2 33.7 64.2 33.7C64.5 33.6 64.8 33.6 65.1 33.6C65.8 33.6 66.1 33.9 66.1 34.5L66.1 35.9C66.2 35.9 66.2 35.9 66.1 36ZM65.2 35C65 35 64.8 35 64.8 35.3C64.8 35.5 65 35.6 65.2 35.6C65.3 35.6 65.5 35.6 65.6 35.5L65.6 35L65.2 35Z" />
		<path id="Layer" fill-rule="evenodd" class="shp1" d="M67.8 33.6C68 33.6 68.1 33.6 68.3 33.7L68.3 32.8C68.3 32.7 68.3 32.7 68.4 32.7L68.9 32.7C69 32.7 69 32.7 69 32.8C69 32.9 69 35.8 69 35.9C69 36.1 68.1 36.2 67.9 36.2C67 36.2 66.7 35.7 66.7 34.9C66.7 34.2 67 33.6 67.8 33.6ZM68 35.6C68.1 35.6 68.3 35.6 68.4 35.5L68.4 34.2C68.2 34.2 68.1 34.2 68 34.2C67.7 34.2 67.5 34.4 67.5 34.9C67.4 35.4 67.6 35.6 68 35.6Z" />
		<path id="Layer" class="shp1" d="M23.9 35.9L24.9 36.1C25 36.1 25.1 36.1 25.2 36L26.5 34.1C26.6 34 26.5 33.9 26.4 33.9L25 33.6C24.8 33.6 24.7 33.5 24.7 33.7L23.9 35.6C23.7 35.8 23.7 35.9 23.9 35.9Z" />
	</g>
</svg>